HIERARCHY
ROOT hip
{
	OFFSET 0.000000 0.000000 0.000000 
	CHANNELS 6 Xposition Yposition Zposition Xrotation Zrotation Yrotation
	JOINT abdomen
	{
		OFFSET 0.000000 3.402643 0.000000 
		CHANNELS 3 Xrotation Zrotation Yrotation
		JOINT chest
		{
			OFFSET 0.000000 8.438565 -0.680529 
			CHANNELS 3 Xrotation Zrotation Yrotation
			JOINT neck
			{
				OFFSET 0.000000 10.207942 -0.272212 
				CHANNELS 3 Xrotation Zrotation Yrotation
				JOINT head
				{
					OFFSET 0.000000 3.130431 0.000000 
					CHANNELS 3 Xrotation Zrotation Yrotation
					End Site
					{
						OFFSET 0.000000 3.130435 0.000000 
					}
				}
			}
			JOINT lCollar
			{
				OFFSET 3.470700 6.669187 -0.816635 
				CHANNELS 3 Yrotation Zrotation Xrotation
				JOINT lShldr
				{
					OFFSET 3.198488 0.000000 0.000000 
					CHANNELS 3 Zrotation Yrotation Xrotation
					JOINT lForeArm
					{
						OFFSET 10.139888 0.000000 0.000000 
						CHANNELS 3 Yrotation Zrotation Xrotation
						JOINT lHand
						{
							OFFSET 8.370511 0.000000 0.000000 
							CHANNELS 3 Zrotation Yrotation Xrotation
							End Site
							{
								OFFSET 4.083176 0.000000 0.000000 
							}
						}
					}
				}
			}
			JOINT rCollar
			{
				OFFSET -3.470700 6.669187 -0.816635 
				CHANNELS 3 Yrotation Zrotation Xrotation
				JOINT rShldr
				{
					OFFSET -3.198488 0.000000 0.000000 
					CHANNELS 3 Zrotation Yrotation Xrotation
					JOINT rForeArm
					{
						OFFSET -10.139888 0.000000 0.000000 
						CHANNELS 3 Yrotation Zrotation Xrotation
						JOINT rHand
						{
							OFFSET -8.370511 0.000000 0.000000 
							CHANNELS 3 Zrotation Yrotation Xrotation
							End Site
							{
								OFFSET -4.083176 0.000000 0.000000 
							}
						}
					}
				}
			}
		}
	}
	JOINT lThigh
	{
		OFFSET 5.308129 -1.633274 1.361059 
		CHANNELS 3 Xrotation Zrotation Yrotation
		JOINT lShin
		{
			OFFSET -2.041588 -20.007561 0.000000 
			CHANNELS 3 Xrotation Zrotation Yrotation
			JOINT lFoot
			{
				OFFSET 0.000000 -19.190928 -1.224953 
				CHANNELS 3 Xrotation Yrotation Zrotation
				End Site
				{
					OFFSET 0.000000 -2.449906 4.627600 
				}
			}
		}
	}
	JOINT rThigh
	{
		OFFSET -5.308129 -1.633274 1.361059 
		CHANNELS 3 Xrotation Zrotation Yrotation
		JOINT rShin
		{
			OFFSET 2.041588 -20.007561 0.000000 
			CHANNELS 3 Xrotation Zrotation Yrotation
			JOINT rFoot
			{
				OFFSET 0.000000 -19.190928 -1.224953 
				CHANNELS 3 Xrotation Yrotation Zrotation
				End Site
				{
					OFFSET 0.000000 -2.449906 4.627600 
				}
			}
		}
	}
}
MOTION
Frames: 11
Frame Time: 0.011111
6.431725 50.791531 33.887791 3.240691 -2.672204 -7.193862 39.736786 4.799158 -0.325604 -27.069941 0.633714 -0.830042 -8.786365 0.043933 2.526075 -18.211374 1.314835 4.872983 8.861669 -1.932660 3.351237 -70.926849 -23.327469 53.723740 -89.346848 5.277902 34.684174 8.524705 12.647240 -16.839245 -6.806992 -0.756156 2.905732 71.947464 19.896772 38.252827 86.202141 -1.261521 29.651682 -8.534408 -12.637552 50.570175 -5.418773 16.709251 13.469957 101.807846 2.897215 -9.766718 12.280119 -4.260392 -1.634127 -14.322402 5.193949 3.902291 41.372349 4.561058 6.253590 -20.776972 -1.533367 2.070115 
6.385225 50.660774 35.273373 3.361958 -2.555296 -6.440525 39.918896 4.727770 -0.672742 -27.294519 0.687886 -0.918987 -7.948962 0.259228 2.358185 -19.692205 1.096153 4.626748 8.861669 -1.932660 3.351237 -70.995125 -21.529331 52.784599 -89.203674 5.154857 34.594894 8.524705 12.647240 -16.155651 -6.806992 -0.756156 2.905732 72.084129 22.306980 39.675312 86.247688 -1.274170 29.983868 -8.534408 -12.637552 51.410019 -9.598128 17.397285 11.978852 104.474632 3.268381 -9.713346 11.807240 -5.274992 -1.561319 -12.948427 4.775835 3.234279 41.660652 4.514869 6.282014 -22.383430 -0.539124 2.283275 
6.350899 50.545620 36.655525 3.425425 -2.322514 -5.480659 40.077785 4.673451 -1.126014 -27.431227 0.760955 -1.019533 -7.657909 0.275708 2.206100 -20.223331 1.065430 4.339633 8.861669 -1.932660 3.351237 -71.084480 -19.945389 52.118526 -89.077316 5.042967 34.496590 8.524705 12.647240 -15.442762 -6.806992 -0.756156 2.905732 72.182167 24.661833 41.054939 86.298889 -1.335945 30.352373 -8.534408 -12.637552 52.240093 -13.661965 17.519218 10.216569 106.556984 3.590250 -9.674720 10.717132 -6.294605 -1.635623 -11.342056 4.236124 2.623247 41.768448 4.522038 6.284225 -23.256111 -1.669140 1.750390 
6.317195 50.415493 38.054523 3.538130 -2.744711 -4.660947 40.096134 5.133277 -0.918567 -27.392097 0.749357 -1.037063 -7.611225 0.286625 2.007304 -20.141764 0.867966 3.964101 8.861669 -1.932660 3.351237 -71.330032 -18.540485 51.445126 -88.983688 4.958347 34.427677 8.524705 12.647240 -14.651745 -6.806992 -0.756156 2.905732 72.101982 26.786398 42.208511 86.361824 -1.453154 30.717171 -8.534408 -12.637552 52.630718 -17.466141 18.392107 8.611001 108.183960 3.804524 -9.639456 9.311572 -7.806118 -1.761845 -9.393450 4.551071 2.228252 41.630665 4.524646 6.272495 -24.439058 -1.939466 1.483459 
6.283180 50.327797 39.438858 3.512976 -3.248397 -4.142405 40.424496 5.416338 -0.382479 -27.509600 0.807555 -0.958146 -7.838352 0.347203 1.743936 -19.749660 0.471827 3.544280 8.861669 -1.932660 3.351237 -71.594444 -17.359529 50.832264 -88.867149 4.851679 34.339710 8.524705 12.647240 -13.938854 -6.806992 -0.756156 2.905732 71.955917 28.808638 43.116257 86.443741 -1.625630 31.098320 -8.534408 -12.637552 52.630718 -21.100098 19.292986 7.256232 109.353668 3.981055 -9.583310 7.992211 -9.605216 -1.894048 -7.167325 4.999754 2.098232 41.166290 4.561130 6.226071 -25.747627 -1.271641 1.578164 
6.254470 50.343399 40.874683 3.727640 -3.547711 -4.429482 40.517952 5.052506 0.504073 -27.959436 0.860036 -0.687127 -8.407230 0.540517 1.461075 -18.392612 -0.081619 3.109472 8.861669 -1.932660 3.351237 -71.659508 -15.866940 50.429447 -88.712547 4.707539 34.213833 8.524705 12.647240 -13.479871 -6.806992 -0.756156 2.905732 71.888977 30.471561 43.895546 86.554703 -1.858716 31.466757 -8.534408 -12.637552 52.533058 -24.931904 19.883078 6.489878 109.800903 4.045733 -9.600660 7.699688 -11.229371 -1.908898 -5.093380 5.278192 2.616601 40.335663 4.629658 6.138998 -25.730871 -1.004718 1.710169 
6.234498 50.429531 42.441578 4.299357 -3.964846 -5.488694 39.679111 4.483250 2.057971 -27.558786 0.616695 -0.193363 -9.055031 0.727253 1.095236 -17.071440 -0.489494 2.474658 8.861669 -1.932660 3.351237 -71.516251 -14.624567 50.450489 -88.750450 4.743924 34.243046 8.524705 12.647240 -12.386120 -6.806992 -0.756156 2.905732 71.840164 32.162628 44.509163 86.725197 -2.189691 31.908428 -8.534408 -12.637552 52.318218 -28.473652 20.768917 6.302293 109.499527 4.010190 -9.582053 7.675899 -12.854296 -1.840083 -3.131941 5.727332 3.782010 39.197765 4.727760 5.995130 -25.150751 -0.437960 2.039433 
6.214526 50.587124 44.073387 4.840775 -4.293411 -6.351596 38.693508 3.903758 3.543111 -27.167381 0.180047 0.301673 -9.537406 1.002913 0.670900 -15.979994 -0.611241 1.714829 8.861669 -1.932660 3.351237 -71.006752 -13.483250 50.637054 -88.811752 4.801783 34.291458 8.524705 12.647240 -11.165418 -6.806992 -0.756156 2.905732 71.840157 33.516426 44.940384 86.958092 -2.588833 32.348335 -8.534408 -12.637552 51.908062 -31.441423 21.256655 5.840007 108.525154 3.864251 -9.612596 7.398592 -14.355738 -1.872285 -0.927273 5.988505 4.927143 37.802055 4.825718 5.836962 -24.227034 -0.261299 2.218715 
6.170212 50.803699 45.498909 4.599304 -4.438379 -6.205575 39.398296 3.331868 4.254814 -28.045834 -0.111244 0.569273 -9.588977 1.105564 0.336188 -15.352917 -0.254301 1.028886 8.861669 -1.932660 3.351237 -70.377190 -12.148972 50.742668 -88.897881 4.880098 34.359921 8.524705 12.647240 -10.179090 -6.806992 -0.756156 2.905732 72.020103 34.178947 45.146545 87.263054 -3.050063 32.797470 -8.534408 -12.637552 51.204933 -34.050972 20.701880 4.447497 107.141457 3.677557 -9.653855 7.486779 -15.299072 -1.818283 1.699150 5.917704 5.409232 36.542873 4.915415 5.696276 -23.145790 -0.509181 2.236775 
6.146807 51.050545 47.053947 5.133588 -4.240660 -7.244301 38.712990 2.151316 5.326502 -28.250002 -0.238434 1.023606 -9.697421 0.821256 0.115753 -14.843695 0.339267 0.450271 8.861669 -1.932660 3.351237 -70.124802 -10.771795 50.535881 -89.044891 5.015087 34.467422 8.524705 12.647240 -9.446669 -6.806992 -0.756156 2.905732 72.069412 34.596897 45.447575 87.606079 -3.506360 33.201309 -8.534408 -12.637552 51.068218 -36.213017 20.356337 4.406428 105.271767 3.395670 -9.713206 6.896996 -16.138094 -1.991404 3.515274 5.331340 6.349542 35.114407 5.013106 5.503017 -21.434275 0.050640 2.607601 
6.093755 51.256824 48.440151 7.050811 -3.946748 -7.061550 36.787914 1.684509 5.507325 -28.532803 -0.281418 1.160713 -9.893371 0.408089 -0.041779 -14.464924 1.109481 -0.073269 8.861669 -1.932660 3.351237 -70.037247 -9.513624 49.890575 -89.195190 5.147993 34.584938 8.524705 12.647240 -9.270886 -6.806992 -0.756156 2.905732 72.044502 35.079693 45.905724 88.021286 -3.998288 33.628113 -8.534408 -12.637552 50.911968 -41.186054 19.284367 2.842656 103.403145 3.131601 -9.744601 7.107184 -16.372177 -1.923938 3.443491 4.858918 6.260173 33.643475 5.110478 5.314109 -19.075071 0.460065 2.923678 
